<svg id="SvgjsSvg1001" width="256" height="256" xmlns="http://www.w3.org/2000/svg" version="1.1" xmlns:xlink="http://www.w3.org/1999/xlink" xmlns:svgjs="http://svgjs.com/svgjs"><defs id="SvgjsDefs1002"></defs><g id="SvgjsG1008"><svg xmlns="http://www.w3.org/2000/svg" data-name="Layer 1" viewBox="0 0 128 128" width="256" height="256"><path d="M102.19 44.39c-10.47-10.52-33-19.08-42.71-21.11-8.74-1.83-17.27-2.69-24.23 3.61C23.64 37.42 22.7 53.6 23.14 63c.55 11.56 4.69 24.65 7.15 30.7 4.26 10.47 11.25 18.79 20.79 15.67 6.54-2.14 10-11.83 11.31-16.29 2.49-8.6 2.71-18 .07-28.7-1.19-4.8-3-9.6-4.51-14.48-.76-2.43-1.58-4.85-2.27-7.35a38.41 38.41 0 0 1-.9-3.84 8.81 8.81 0 0 1-.12-2.07 3.54 3.54 0 0 1 .78-2.07.45.45 0 0 1 .72.52c-.53.91-.21 2.12.13 3.26a34.77 34.77 0 0 0 1.38 3.47l3.19 7c1.95 4.41 3.92 8.81 5.55 13.5 2.26-.14 4.56-.31 6.82-.54q4.08-.39 8.09-1.06c2.67-.44 13-2.32 13.07-4.83.06-1.56-4.34-4.39-5.52-5.07a64.88 64.88 0 0 0-7.42-3.56c-2.56-1-5.16-2-7.78-2.84-1.31-.42-2.64-.79-4-1.12a22.48 22.48 0 0 0-4-.7.24.24 0 1 1 0-.48 45 45 0 0 1 8.16 1.78c2.67.77 5.3 1.65 7.91 2.59a81 81 0 0 1 7.73 3.23c2.82 1.35 7.45 4 7.26 7-.31 4.63-11.91 7.09-14.66 7.74a113.72 113.72 0 0 1-14.3 2.26 52.13 52.13 0 0 1 1.78 12.14 36.36 36.36 0 0 1-.64 8 25 25 0 0 1-.91 3.41c6.53-2.06 27.26-6.89 32.61-8.93 7-2.66 8.16-7.57 9.09-12.67a27 27 0 0 0-7.51-24.28Zm-50.35 56.14c-3.44 4.17-7.3 2.76-8.53 2a.43.43 0 1 1 .48-.71c3.31 2.08 6.33-.38 7.5-3.73 3.85-11 1.35-23.32-8.9-36.39-.15-.2-.27-.41-.14-.62a.47.47 0 0 1 .6-.14c13.21 5.82 18.5 28.06 8.99 39.59Z"></path></svg></g></svg>