<?xml version="1.0" encoding="utf-8"?>
<!-- Generator: Adobe Illustrator 26.0.3, SVG Export Plug-In . SVG Version: 6.00 Build 0)  -->
<svg version="1.0" id="katman_1" xmlns="http://www.w3.org/2000/svg" xmlns:xlink="http://www.w3.org/1999/xlink" x="0px" y="0px"
	 viewBox="0 0 600 450" style="enable-background:new 0 0 600 450;" xml:space="preserve">
<style type="text/css">
	.st0{fill:url(#SVGID_1_);}
</style>
<linearGradient id="SVGID_1_" gradientUnits="userSpaceOnUse" x1="303.0157" y1="131.0236" x2="183.1429" y2="212.4279" gradientTransform="matrix(1 0 0 -1 -120.9449 379.3622)">
	<stop  offset="0" style="stop-color:#454D9C"/>
	<stop  offset="0.5" style="stop-color:#47B8EA"/>
	<stop  offset="1" style="stop-color:#82C28A"/>
</linearGradient>
<path class="st0" d="M178.9,198.8l-38.4,66.5c-1.2,2-2.8,3.7-4.8,4.8c-2,1.2-4.3,1.8-6.6,1.8c-2.3,0-4.6-0.6-6.6-1.8
	c-2-1.2-3.7-2.8-4.8-4.8l-6.7-11.6c0,0,0-0.1,0-0.1c0,0,0-0.1,0.1-0.1c0,0,0.1,0,0.1,0c0,0,0.1,0,0.1,0.1c1.2,1.2,2.7,2.1,4.3,2.6
	c1.6,0.5,3.3,0.7,5,0.5c1.7-0.2,3.3-0.8,4.7-1.8c1.4-0.9,2.6-2.2,3.4-3.6l32.1-55.7c0.8-1.5,1.3-3.1,1.5-4.8c0.1-1.7-0.2-3.4-0.8-5
	c-0.7-1.6-1.7-3-2.9-4.1c-1.3-1.1-2.8-1.9-4.4-2.4c0,0-0.1,0-0.1,0c0,0,0-0.1,0-0.1s0-0.1,0-0.1c0,0,0.1,0,0.1,0h13.6
	c2.3,0,4.6,0.6,6.6,1.8c2,1.2,3.7,2.8,4.8,4.8c1.2,2,1.8,4.3,1.8,6.6C180.6,194.5,180,196.7,178.9,198.8z M133.4,178.9h-13.3
	c0,0-0.1,0-0.1,0c0,0,0,0.1,0,0.1s0,0.1,0,0.1s0,0,0.1,0c0.9,0.3,1.7,0.9,2.4,1.6c0.7,0.7,1.2,1.5,1.5,2.4c0.3,0.9,0.4,1.9,0.4,2.8
	c-0.1,1-0.4,1.9-0.9,2.7l-19.4,33.5c-0.5,0.9-1.2,1.6-2,2.1c-0.8,0.6-1.7,0.9-2.7,1.1s-2,0.1-2.9-0.2c-0.9-0.3-1.8-0.8-2.6-1.4
	c0,0-0.1,0-0.1-0.1c0,0-0.1,0-0.1,0c0,0,0,0.1-0.1,0.1c0,0,0,0.1,0,0.1l6.8,11.8c0.8,1.3,1.9,2.4,3.2,3.2c1.3,0.8,2.8,1.2,4.4,1.2
	c1.5,0,3-0.4,4.4-1.2s2.4-1.9,3.2-3.2L141,192c0.8-1.3,1.2-2.8,1.2-4.4c0-1.5-0.4-3-1.2-4.4c-0.8-1.3-1.9-2.4-3.2-3.2
	C136.5,179.3,135,178.9,133.4,178.9z M87.3,178.9c-2.3,0-4.5,0.7-6.4,1.9c-1.9,1.3-3.4,3.1-4.2,5.2c-0.9,2.1-1.1,4.4-0.7,6.6
	c0.4,2.2,1.5,4.3,3.1,5.9c1.6,1.6,3.7,2.7,5.9,3.1c2.2,0.4,4.5,0.2,6.6-0.7c2.1-0.9,3.9-2.3,5.2-4.2c1.3-1.9,1.9-4.1,1.9-6.4
	c0-1.5-0.3-3-0.9-4.4c-0.6-1.4-1.4-2.7-2.5-3.7c-1.1-1.1-2.3-1.9-3.7-2.5C90.3,179.2,88.8,178.9,87.3,178.9z"/>
<path d="M271,199.8h-11.5l-15.7,37.3l-15.6-37.3h-11.5l22.1,51.2h10L271,199.8z"/>
<path d="M327.4,241.6h-28.5V230h26.1v-9.2h-26.1v-11.5h28.4v-9.4h-38.7V251h38.9V241.6z"/>
<path d="M395.9,199.8h-10.4v33.8l-28.4-33.8h-8.7V251h10.4v-32.9l28.4,32.9h8.7V199.8z"/>
<path d="M462.1,199.8h-10.4V228c0,4.3-1.1,7.7-3.2,10.3c-2.1,2.6-5,3.8-8.4,3.8c-3.7,0-6.7-1.2-8.9-3.8c-2.2-2.6-3.3-6-3.3-10.3
	v-28.3h-10.4V228c0,7.2,2.1,13,6.2,17.4c4.1,4.4,9.6,6.6,16.4,6.6c6.6,0,11.9-2.2,16-6.6c4-4.4,6-10.2,6-17.4V199.8z"/>
<path d="M502.6,198.6c-6,0-10.7,1.5-14.2,4.4c-3.5,2.9-5.3,6.6-5.3,11.2c0,7.9,4.4,12.8,13.5,14.7l10.9,2.1c2.1,0.5,3.7,1.1,4.6,2
	c0.9,0.9,1.4,2.1,1.4,3.6c0,1.9-0.8,3.4-2.4,4.7c-1.6,1.2-3.8,1.8-6.7,1.8c-6.3,0-10.2-2.8-11.5-8.3l-10.9,2.2
	c0.6,4.9,2.9,8.7,6.9,11.3c4,2.6,8.9,3.9,14.5,3.9c6.1,0,11-1.5,14.8-4.4c3.7-2.9,5.6-6.8,5.6-11.8c0-3.9-1.2-7.1-3.6-9.6
	c-2.4-2.4-5.7-4.2-9.9-5.1l-11-2.2c-3.4-0.6-5.1-2.4-5.1-5.2c0-1.8,0.8-3.3,2.3-4.5c1.5-1.2,3.5-1.8,6-1.8c2.6,0,4.8,0.8,6.7,2.2
	c1.8,1.5,3,3.4,3.4,5.7l10.4-2.1c-1-4.5-3.3-8.1-7-10.8C512.3,200,507.8,198.6,502.6,198.6z"/>
</svg>
